<svg width="48" height="48" viewBox="0 0 48 48" fill="none" xmlns="http://www.w3.org/2000/svg">
<g clip-path="url(#clip0)">
<g filter="url(#filter0_d)">
<mask id="mask0" mask-type="alpha" maskUnits="userSpaceOnUse" x="2" y="2" width="44" height="44">
<rect x="2" y="2" width="44" height="44" rx="12" fill="#C4C4C4"/>
</mask>
<g mask="url(#mask0)">
<path d="M57 -9H-8.9328V57H57V-9Z" fill="#795548" style="mix-blend-mode:darken"/>
<path d="M13 -9H-9V57H13V-9Z" fill="#6D4C41" style="mix-blend-mode:darken"/>
<path d="M13 -9H-9V57H13V-9Z" fill="black" fill-opacity="0.2"/>
<path opacity="0.12" d="M13.6111 -9H13V57H13.6111V-9Z" fill="white" fill-opacity="0.1"/>
<path opacity="0.12" d="M13 -9H12.3889V57H13V-9Z" fill="black" fill-opacity="0.1"/>
<mask id="mask1" mask-type="alpha" maskUnits="userSpaceOnUse" x="-9" y="-9" width="66" height="66">
<path d="M57 -9H-9V57H57V-9Z" fill="black"/>
</mask>
<g mask="url(#mask1)">
<path d="M8.06725 20.8253C9.26952 19.1766 11.0469 19.0238 12.3737 20.0862C12.5375 20.2189 12.7534 20.2895 12.9992 20.2895C13.245 20.2895 13.4593 20.2189 13.6295 20.0862C14.9515 19.0226 16.7305 19.1766 17.9359 20.8253C18.0037 20.9182 18.1376 20.9617 18.2715 20.9382C18.4102 20.9111 18.5 20.8218 18.5 20.7184V18.1239V-8.67094C18.5 -9.19019 18.2264 -9.61111 17.8889 -9.61111H8.11111C7.7736 -9.61111 7.5 -9.19019 7.5 -8.67094V18.1239V20.7196C7.5 20.8218 7.59454 20.9123 7.72848 20.9382C7.86241 20.9617 7.9995 20.9182 8.06725 20.8253Z" fill="#EF5350"/>
</g>
</g>
</g>
</g>
<defs>
<filter id="filter0_d" x="-1.5" y="-1.5" width="52" height="52" filterUnits="userSpaceOnUse" color-interpolation-filters="sRGB">
<feFlood flood-opacity="0" result="BackgroundImageFix"/>
<feColorMatrix in="SourceAlpha" type="matrix" values="0 0 0 0 0 0 0 0 0 0 0 0 0 0 0 0 0 0 127 0" result="hardAlpha"/>
<feOffset dx="0.5" dy="0.5"/>
<feGaussianBlur stdDeviation="2"/>
<feColorMatrix type="matrix" values="0 0 0 0 0 0 0 0 0 0 0 0 0 0 0 0 0 0 0.25 0"/>
<feBlend mode="normal" in2="BackgroundImageFix" result="effect1_dropShadow"/>
<feBlend mode="normal" in="SourceGraphic" in2="effect1_dropShadow" result="shape"/>
</filter>
<clipPath id="clip0">
<rect width="48" height="48" fill="white"/>
</clipPath>
</defs>
</svg>
