<svg xmlns:xlink="http://www.w3.org/1999/xlink" xmlns="http://www.w3.org/2000/svg" width="107" height="28" viewBox="0 0 107 28" fill="none"><path d="M103.266 7.2396C102.664 6.22016 101.809 5.37992 100.776 4.79071C99.7731 4.21837 98.6257 3.86678 97.3872 3.86909L97.3942 7.53175C97.9598 7.53074 98.4838 7.69088 98.9422 7.95159C99.4149 8.22022 99.8065 8.60327 100.083 9.06841C100.352 9.52142 100.517 10.0418 100.521 10.6038L104.218 10.5968C104.213 9.36835 103.852 8.23119 103.266 7.2396Z" fill="#000099"/><path d="M104.218 10.5967L100.521 10.6037C100.521 10.609 100.522 10.6139 100.522 10.6194C100.523 11.1777 100.363 11.695 100.101 12.1481C99.8292 12.6202 99.4397 13.011 98.9663 13.2856C98.5056 13.5529 97.977 13.7175 97.4058 13.7187C96.8343 13.7197 96.3053 13.5569 95.8437 13.2915C95.3692 13.0185 94.9782 12.6291 94.7042 12.1581C94.4412 11.7059 94.2785 11.1893 94.2775 10.6309C94.2775 10.6256 94.2791 10.6205 94.2791 10.6152C94.281 10.0533 94.4442 9.5323 94.7114 9.07827C94.9858 8.61212 95.3761 8.22764 95.8476 7.95712C96.3051 7.69484 96.8285 7.53267 97.3941 7.53166L97.3871 3.869C96.1487 3.87131 95.0027 4.22709 94.0015 4.80302C92.9707 5.39613 92.1189 6.23984 91.521 7.2613C90.9392 8.25505 90.5827 9.39351 90.5822 10.622C90.5822 10.6275 90.5806 10.6324 90.5806 10.6377C90.5829 11.8627 90.941 12.9962 91.5207 13.9869C92.1204 15.0121 92.9746 15.8587 94.0095 16.4522C95.0159 17.0295 96.1686 17.3836 97.4128 17.3813C98.6568 17.379 99.808 17.0205 100.812 16.4397C101.845 15.8422 102.696 14.9925 103.292 13.9651C103.868 12.9722 104.222 11.8375 104.219 10.6125C104.219 10.6071 104.218 10.6022 104.218 10.5967Z" fill="#6600FF"/><path d="M96.5933 11.3938V1.08346H98.1391V9.85671H107V11.3938H96.5933Z" fill="#FF0068"/><path d="M81.7333 7.53167C80.0112 7.53167 78.611 8.919 78.611 10.6252C78.611 12.3314 80.0112 13.7187 81.7333 13.7187C83.4554 13.7187 84.8557 12.3314 84.8557 10.6252C84.8557 8.919 83.4554 7.53167 81.7333 7.53167ZM81.7333 17.3813C77.9732 17.3813 74.9141 14.3505 74.9141 10.6252C74.9141 6.8999 77.9732 3.86902 81.7333 3.86902C85.4934 3.86902 88.5527 6.8999 88.5527 10.6252C88.5527 14.3505 85.4934 17.3813 81.7333 17.3813Z" fill="#6600FF"/><path d="M81.7116 17.3813V21.0608H84.8002C84.7477 22.7716 83.4571 24.0429 81.7121 24.0429C79.9298 24.0429 78.6182 22.7191 78.6182 20.9539V19.221H74.9062V21.0608H74.9089C74.9643 24.7343 77.8638 27.5 81.7121 27.5C85.5596 27.5 88.4589 24.7343 88.5146 21.0608H88.5172V17.3813H81.7116Z" fill="#6600FF"/><path d="M44.0587 13.4126C43.4157 13.4126 43.0442 13.0452 43.0442 12.4074V8.82828C43.0442 5.95984 41.1138 4.07174 38.2185 4.07174C36.8619 4.07174 35.534 4.49258 34.3831 5.27512V4.07174H30.7705V12.8694V13.9145C30.7705 15.2766 30.7705 16.8696 30.7705 16.8696H34.3831V13.9145V9.615C34.3831 8.07056 35.4473 7.0654 37.0062 7.0654C38.4659 7.0654 39.4316 8.04588 39.4316 9.5658V13.192C39.4316 15.6194 40.743 16.8696 43.2916 16.8696H44.3061V13.4126H44.0587Z" fill="#000099"/><path d="M61.5396 7.53167C59.8173 7.53167 58.4171 8.919 58.4171 10.6252C58.4171 12.3314 59.8173 13.7187 61.5396 13.7187C63.2616 13.7187 64.6619 12.3314 64.6619 10.6252C64.6619 8.919 63.2616 7.53167 61.5396 7.53167ZM61.5396 17.3813C57.7793 17.3813 54.7202 14.3505 54.7202 10.6252C54.7202 6.8999 57.7793 3.86902 61.5396 3.86902C65.2996 3.86902 68.3588 6.8999 68.3588 10.6252C68.3588 14.3505 65.2996 17.3813 61.5396 17.3813Z" fill="#000099"/><path d="M21.8125 7.53167C20.0904 7.53167 18.6901 8.919 18.6901 10.6252C18.6901 12.3314 20.0904 13.7187 21.8125 13.7187C23.5347 13.7187 24.935 12.3314 24.935 10.6252C24.935 8.919 23.5347 7.53167 21.8125 7.53167ZM21.8125 17.3813C18.0524 17.3813 14.9932 14.3505 14.9932 10.6252C14.9932 6.8999 18.0524 3.86902 21.8125 3.86902C25.5727 3.86902 28.6319 6.8999 28.6319 10.6252C28.6319 14.3505 25.5727 17.3813 21.8125 17.3813Z" fill="#000099"/><path d="M9.79882 10.6423C9.79882 8.87721 8.48734 7.55322 6.70579 7.55322C4.92424 7.55322 3.61276 8.87721 3.61276 10.6423C3.61276 12.4073 4.92424 13.7311 6.70579 13.7311C8.48734 13.7311 9.79882 12.4073 9.79882 10.6423ZM13.5109 10.6423C13.5109 14.369 10.9125 17.1882 7.42312 17.1882C5.86423 17.1882 4.55275 16.5505 3.61276 15.4962V21.0608H0V4.39046H3.61276V5.78746C4.55275 4.73326 5.86423 4.09615 7.42312 4.09615C10.9125 4.09615 13.5109 6.91539 13.5109 10.6423Z" fill="#000099"/><path d="M52.0391 13.6085C51.0982 13.6085 50.5537 13.0937 50.5537 12.2115V7.34183H53.3009V4.08155H50.5537H46.941H45.1919V7.33721H46.941V7.34183V12.8001C46.941 15.4719 48.4751 16.8696 51.4946 16.8696H53.3009V13.6085H52.0391Z" fill="#000099"/><path d="M50.4094 4.08154C48.4129 4.08154 46.7944 2.47809 46.7944 0.500103H50.4094V4.08154Z" fill="#000099"/></svg>